<svg width="32" height="32" viewBox="0 0 32 32" fill="none" xmlns="http://www.w3.org/2000/svg">
  <!-- Simplified Humanoid Head for Favicon -->
  <path d="M16 3C11.5 3 8 5.5 8 10C8 12 8.5 13.5 9.2 14.8C9.5 15.5 10 16 10.5 16.5C11.5 17.5 13 18.5 15 19C15.5 19.2 16 19.3 16.5 19.4C17 19.5 17.5 19.5 18 19.5C18.5 19.5 19 19.4 19.5 19.3C20.5 19.1 21.5 18.7 22.5 18.2C24 17.5 25 16.5 25.8 15.5C26.2 15 26.5 14.5 26.8 13.8C27.5 12.5 28 11 28 9C28 4.5 24.5 2 20 2H16Z" fill="#EAB308"/>

  <!-- Circuit Brain -->
  <circle cx="16" cy="10" r="2" fill="#EC4899"/>
  <path d="M16 8V6M14 9L12 7M18 9L20 7" stroke="#EC4899" stroke-width="1.5" stroke-linecap="round"/>
  <circle cx="16" cy="6" r="1" fill="#FEF9C3"/>
  <circle cx="12" cy="7" r="1" fill="#FEF9C3"/>
  <circle cx="20" cy="7" r="1" fill="#FEF9C3"/>

  <path d="M18 10H21M14 10H11" stroke="#EC4899" stroke-width="1.5" stroke-linecap="round"/>
  <circle cx="21" cy="10" r="1" fill="#FEF9C3"/>
  <circle cx="11" cy="10" r="1" fill="#FEF9C3"/>

  <path d="M16 12V14M14 11L12 13M18 11L20 13" stroke="#EC4899" stroke-width="1.5" stroke-linecap="round"/>
  <circle cx="16" cy="14" r="1" fill="#FEF9C3"/>
  <circle cx="12" cy="13" r="1" fill="#FEF9C3"/>
  <circle cx="20" cy="13" r="1" fill="#FEF9C3"/>

  <!-- Neck -->
  <path d="M13 19C13 19 13.5 23 14 25C14.5 26.5 15 28 16 28.5C17 29 18 28.5 18.5 27C19 25.5 19.5 23 19.5 19" stroke="#EAB308" stroke-width="1.5" stroke-linecap="round"/>
</svg>
