<svg width="48" height="48" viewBox="0 0 48 48" fill="none" xmlns="http://www.w3.org/2000/svg">
  <!-- Humanoid Head Outline -->
  <path d="M24 4C17.5 4 12 8.5 12 15C12 18 12.5 20.5 13.5 22.5C14 23.5 14.5 24.3 15.2 25C15.5 25.3 15.8 25.6 16.2 25.9C17.5 27 19.2 28 21.5 28.8C22.5 29.2 23.6 29.5 24.8 29.7C25.2 29.8 25.6 29.8 26 29.9C26.5 29.9 27 30 27.5 30C28.4 30 29.2 29.9 30 29.7C31.2 29.5 32.3 29.2 33.3 28.8C35.6 28 37.3 27 38.6 25.9C39 25.6 39.3 25.3 39.6 25C40.3 24.3 40.8 23.5 41.3 22.5C42.3 20.5 42.8 18 42.8 15C42.8 8.5 37.3 4 30.8 4H24Z" stroke="#EAB308" stroke-width="2" stroke-linecap="round" stroke-linejoin="round"/>

  <!-- Neck -->
  <path d="M19 29C19 29 20 35 20.5 38C20.7 39.2 21 40 21.5 41C22 42 22.8 43 24 43.5C25.2 44 26.8 44 28 43.5C29.2 43 30 42 30.5 41C31 40 31.3 39.2 31.5 38C32 35 33 29 33 29" stroke="#EAB308" stroke-width="2" stroke-linecap="round" stroke-linejoin="round"/>

  <!-- Circuit Brain - Central Hub -->
  <circle cx="24" cy="16" r="2.5" fill="#EC4899"/>

  <!-- Circuit Lines - Top -->
  <path d="M24 13.5V10M21 14L18.5 11.5M27 14L29.5 11.5" stroke="#EC4899" stroke-width="1.5" stroke-linecap="round"/>

  <!-- Circuit Nodes - Top -->
  <circle cx="24" cy="10" r="1.2" fill="#EAB308"/>
  <circle cx="18.5" cy="11.5" r="1.2" fill="#EAB308"/>
  <circle cx="29.5" cy="11.5" r="1.2" fill="#EAB308"/>

  <!-- Circuit Lines - Middle -->
  <path d="M26.5 16H30M21.5 16H18" stroke="#EC4899" stroke-width="1.5" stroke-linecap="round"/>

  <!-- Circuit Nodes - Middle -->
  <circle cx="30" cy="16" r="1.2" fill="#EAB308"/>
  <circle cx="18" cy="16" r="1.2" fill="#EAB308"/>

  <!-- Circuit Lines - Bottom -->
  <path d="M24 18.5V22M21 18L18.5 20.5M27 18L29.5 20.5" stroke="#EC4899" stroke-width="1.5" stroke-linecap="round"/>

  <!-- Circuit Nodes - Bottom -->
  <circle cx="24" cy="22" r="1.2" fill="#EAB308"/>
  <circle cx="18.5" cy="20.5" r="1.2" fill="#EAB308"/>
  <circle cx="29.5" cy="20.5" r="1.2" fill="#EAB308"/>

  <!-- Neural Connections (subtle) -->
  <path d="M21.5 16C21.5 16 22 17 22.5 17.5M26.5 16C26.5 16 26 17 25.5 17.5" stroke="#FACC15" stroke-width="1" stroke-linecap="round" opacity="0.6"/>

  <!-- Eyes (minimalist dots) -->
  <circle cx="20" cy="15" r="1" fill="#EC4899" opacity="0.5"/>
  <circle cx="28" cy="15" r="1" fill="#EC4899" opacity="0.5"/>
</svg>
